<?xml version="1.0" standalone="no"?>
<!DOCTYPE svg PUBLIC "-//W3C//DTD SVG 20010904//EN"
 "http://www.w3.org/TR/2001/REC-SVG-20010904/DTD/svg10.dtd">
<svg version="1.0" xmlns="http://www.w3.org/2000/svg"
 width="225.000000pt" height="225.000000pt" viewBox="0 0 225.000000 225.000000"
 preserveAspectRatio="xMidYMid meet">

<g transform="translate(0.000000,225.000000) scale(0.100000,-0.100000)"
fill="#000000" stroke="none">
<path d="M850 2229 c-215 -56 -386 -155 -536 -311 -136 -141 -208 -260 -271
-443 l-37 -110 -4 -215 c-3 -203 -2 -221 22 -312 52 -204 150 -375 300 -524
135 -134 267 -216 451 -281 78 -27 85 -28 334 -31 246 -3 256 -3 342 22 115
33 199 72 303 140 216 140 386 363 468 611 22 66 23 85 23 345 l0 275 -29 85
c-125 373 -435 660 -811 751 -116 28 -446 27 -555 -2z m280 -74 c0 -10 -11
-15 -35 -15 -24 0 -35 -5 -35 -15 0 -11 11 -15 36 -15 42 0 43 -23 1 -28 -41
-5 -34 -32 8 -32 19 0 35 -4 35 -9 0 -9 -88 -27 -94 -20 -2 2 -6 34 -9 71 l-6
67 47 4 c26 2 48 4 50 5 1 1 2 -5 2 -13z m-111 -58 c14 -79 14 -77 -2 -77 -8
0 -18 17 -24 38 l-10 37 -2 -42 c-1 -34 -5 -43 -19 -43 -11 0 -25 14 -35 33
l-17 32 6 -37 c5 -30 3 -38 -9 -38 -16 0 -21 16 -32 93 -7 42 -5 47 12 47 13
0 27 -16 44 -47 l24 -48 3 45 c4 60 8 70 31 70 16 0 21 -11 30 -63z m161 -7
c0 -57 -3 -70 -16 -70 -12 0 -15 13 -13 70 1 51 6 70 16 70 10 0 13 -18 13
-70z m111 60 c21 -12 26 -40 8 -40 -7 0 -17 7 -24 17 -7 9 -19 14 -29 10 -24
-9 -20 -24 11 -39 61 -30 57 -78 -6 -78 -30 0 -43 5 -51 19 -13 26 -13 31 4
31 8 0 16 -7 20 -15 7 -18 46 -20 46 -2 0 6 -14 20 -30 29 -17 10 -33 24 -36
33 -14 36 42 58 87 35z m108 -20 c43 -11 57 -34 19 -28 -20 3 -25 -4 -37 -49
-8 -31 -20 -53 -27 -53 -17 0 -17 2 0 68 13 49 13 52 -5 52 -11 0 -19 7 -19
16 0 10 6 14 14 11 8 -3 33 -11 55 -17z m-599 -31 c0 -5 -13 -15 -30 -20 -33
-12 -32 -11 -24 -33 4 -11 11 -13 31 -5 31 11 43 12 43 0 0 -5 -13 -14 -30
-19 -21 -8 -28 -15 -24 -27 4 -9 13 -14 21 -11 36 14 63 17 63 8 0 -9 -69 -42
-89 -42 -9 0 -56 118 -50 124 6 6 72 34 82 35 4 1 7 -4 7 -10z m710 -5 c45
-18 55 -40 13 -29 -44 11 -45 11 -50 -2 -2 -6 10 -19 27 -28 17 -9 28 -20 25
-25 -4 -6 -14 -6 -26 1 -22 11 -49 6 -49 -9 0 -5 14 -15 30 -22 17 -7 30 -18
30 -24 1 -6 14 15 31 47 16 31 34 57 40 57 19 0 67 -29 73 -45 7 -18 -8 -51
-24 -57 -6 -2 -12 -17 -14 -33 -4 -39 -20 -35 -26 6 -6 39 -24 48 -39 20 -11
-19 -12 -19 -73 6 -35 14 -64 26 -66 27 -1 2 5 20 14 42 9 21 20 49 25 62 10
26 8 26 59 6z m-793 -93 c23 -42 29 -61 20 -64 -6 -2 -22 12 -35 32 -23 35
-24 32 -6 -30 11 -38 -18 -41 -55 -6 l-34 32 20 -37 c20 -34 20 -48 2 -48 -13
0 -71 109 -64 120 12 19 34 10 71 -27 20 -21 34 -30 31 -21 -12 36 -19 87 -12
97 13 23 31 9 62 -48z m1033 -45 c0 -7 -7 -19 -15 -26 -13 -10 -12 -15 8 -30
21 -18 22 -18 39 3 12 16 20 19 28 11 8 -8 -1 -25 -31 -62 -22 -29 -45 -52
-49 -52 -14 0 -21 18 -10 25 5 3 14 15 20 25 8 15 6 21 -12 31 -18 10 -24 8
-40 -11 -14 -17 -22 -20 -30 -12 -8 8 0 25 28 61 38 49 64 64 64 37z m-1188
-43 c64 -42 74 -58 28 -48 -39 9 -59 -7 -52 -41 9 -50 -21 -20 -41 39 -17 53
-18 87 -1 87 4 0 34 -17 66 -37z m732 16 c255 -44 498 -247 601 -502 42 -105
58 -187 58 -307 0 -115 -14 -189 -55 -295 -93 -240 -285 -417 -538 -497 -65
-20 -95 -23 -230 -23 -135 0 -165 3 -230 23 -270 85 -475 288 -560 557 -34
107 -40 312 -11 425 95 386 458 659 841 633 36 -2 92 -9 124 -14z m559 -56 c6
-10 -78 -103 -92 -103 -22 0 -10 25 31 67 42 43 53 49 61 36z m-1406 -15 c-2
-7 -12 -13 -22 -13 -10 0 -23 -8 -29 -17 -8 -14 -5 -23 14 -43 28 -30 65 -30
65 0 0 15 -6 19 -24 17 -26 -4 -26 15 1 32 39 24 65 -48 31 -86 -24 -27 -57
-22 -92 14 -37 38 -38 54 -9 85 23 24 73 32 65 11z m1473 -55 c22 -28 23 -54
3 -61 -8 -2 -13 6 -13 22 0 34 -23 43 -56 22 -31 -21 -40 -42 -24 -61 14 -16
43 -8 36 10 -8 22 6 26 26 8 17 -15 17 -17 2 -35 -24 -25 -59 -22 -82 7 -25
31 -19 57 20 90 38 32 61 32 88 -2z m-1562 -94 c36 -28 51 -44 44 -51 -7 -7
-26 1 -58 23 -26 19 -52 37 -57 40 -9 7 -1 29 10 29 3 0 31 -18 61 -41z m1624
19 c3 -7 -4 -20 -15 -29 -18 -14 -19 -18 -5 -37 13 -19 17 -20 35 -7 19 13 33
11 33 -5 0 -4 -25 -23 -55 -43 -36 -25 -56 -33 -61 -25 -4 6 3 19 15 29 18 15
20 22 11 39 -13 24 -19 25 -47 5 -15 -10 -24 -12 -28 -4 -8 13 -8 13 52 55 54
37 60 39 65 22z m-1682 -48 c0 -6 -11 -15 -25 -20 -31 -12 -32 -34 -3 -54 28
-20 64 -21 71 -2 7 18 -18 42 -28 26 -3 -6 -11 -8 -16 -5 -5 3 -1 17 8 31 l16
25 23 -22 c28 -26 30 -46 8 -77 -22 -32 -68 -29 -105 7 -35 35 -35 40 -8 75
20 25 59 36 59 16z m-70 -118 c0 -4 -9 -13 -20 -20 -30 -18 -24 -40 16 -59 34
-17 36 -17 50 1 18 25 0 53 -23 35 -19 -16 -27 -5 -13 20 13 25 27 26 52 4 24
-22 23 -54 -3 -82 -24 -26 -57 -23 -99 8 -40 30 -25 101 21 101 11 0 19 -3 19
-8z m1858 -25 c14 -30 7 -71 -11 -64 -7 2 -11 18 -9 35 2 24 -1 32 -12 32 -12
0 -16 -10 -16 -38 0 -66 -47 -86 -75 -32 -17 33 -12 70 10 70 8 0 12 -11 11
-32 -1 -23 3 -33 14 -33 11 0 14 9 12 33 -6 63 50 84 76 29z m-1869 -103 c69
-20 67 -44 -4 -60 -50 -11 -50 -11 -22 -23 16 -6 35 -11 43 -11 8 0 14 -7 14
-15 0 -8 -5 -15 -10 -15 -23 0 -130 34 -130 41 0 18 31 37 72 44 l43 7 -48 14
c-26 8 -45 19 -42 24 8 14 23 13 84 -6z m1905 -6 c20 -28 20 -62 2 -77 -18
-15 -32 4 -17 23 13 16 4 46 -14 46 -6 0 -26 -5 -44 -11 -36 -13 -43 -48 -11
-56 23 -6 27 -33 6 -33 -27 0 -47 31 -44 69 3 31 8 38 38 48 51 17 67 16 84
-9z m34 -120 c-3 -7 -14 -14 -26 -16 -16 -2 -22 -10 -22 -28 0 -20 5 -24 30
-24 20 0 30 -5 30 -15 0 -10 -18 -16 -62 -21 -73 -8 -72 -8 -76 4 -2 6 11 13
27 17 24 5 31 12 31 31 0 21 -5 24 -35 24 -50 0 -48 27 3 33 82 8 104 7 100
-5z m-1954 -8 c56 -21 37 -110 -24 -110 -73 0 -109 45 -76 95 18 27 55 33 100
15z m-94 -155 c0 -44 25 -48 34 -5 3 17 10 30 16 30 5 0 10 -13 10 -30 0 -20
5 -30 15 -30 10 0 15 11 15 35 0 24 5 35 15 35 11 0 15 -12 15 -50 l0 -50 -70
0 -70 0 0 50 c0 28 5 50 10 50 6 0 10 -16 10 -35z m2061 8 c22 -58 -32 -97
-107 -79 -27 7 -41 55 -24 85 9 17 20 21 66 21 50 0 55 -2 65 -27z m-1970
-129 c21 4 29 2 29 -9 0 -8 -14 -17 -34 -21 -19 -3 -44 -17 -57 -30 -12 -13
-26 -24 -31 -24 -16 0 -8 30 12 40 27 14 25 24 -5 38 -14 6 -25 19 -25 27 0
13 7 12 41 -6 28 -14 52 -19 70 -15z m1953 10 c18 -18 20 -33 6 -68 -8 -23
-15 -26 -55 -26 -57 0 -89 27 -79 68 10 41 12 42 64 42 31 0 54 -6 64 -16z
m-1908 -119 c33 -50 -3 -95 -75 -95 -49 0 -72 55 -40 93 l19 22 -2 -40 -3 -40
39 1 c37 1 59 18 53 39 -4 13 -48 20 -45 7 2 -6 -1 -11 -7 -11 -5 -1 -11 10
-13 24 -3 22 0 25 27 25 22 0 35 -7 47 -25z m1902 -24 c4 -11 -3 -13 -34 -7
-22 3 -49 9 -61 12 -17 5 -22 1 -28 -25 -4 -17 -13 -31 -20 -31 -13 0 -9 28
10 87 5 16 127 -17 133 -36z m-1818 -203 c15 -27 16 -38 7 -42 -7 -3 -3 -7 10
-11 37 -12 34 -31 -10 -55 -30 -17 -42 -20 -45 -11 -3 8 -9 4 -16 -11 -20 -41
-46 -28 -84 40 -32 59 -34 65 -18 80 22 22 44 8 74 -46 23 -40 51 -59 38 -26
-5 13 -2 15 14 11 13 -3 20 0 20 9 0 8 -9 14 -20 14 -26 0 -85 53 -76 69 5 8
16 4 38 -14 40 -33 52 -32 33 5 -9 17 -13 35 -9 41 7 12 14 5 44 -53z m1653
31 c44 -23 68 -51 55 -66 -6 -7 -7 -17 -3 -21 4 -4 14 3 22 16 9 12 22 22 30
22 19 0 -61 -144 -83 -148 -12 -3 -14 1 -10 15 5 15 0 23 -19 31 -14 6 -25 16
-25 21 0 19 21 22 45 7 13 -9 26 -12 29 -7 3 4 -6 13 -19 19 -33 15 -34 47 -2
39 20 -5 19 -4 -7 19 l-29 26 -30 -49 c-36 -59 -34 -56 -46 -49 -8 5 55 136
67 136 2 0 13 -5 25 -11z m-1564 -165 c36 -41 33 -51 -25 -79 -39 -18 -94 -14
-113 9 -16 19 -3 26 31 14 24 -8 38 -7 65 6 l34 16 -20 26 c-43 54 -18 61 28
8z m1498 -6 c-3 -11 7 -26 29 -43 34 -26 45 -55 21 -55 -7 0 -17 4 -23 10 -7
7 -23 -5 -48 -35 -34 -41 -65 -53 -52 -20 3 8 -2 11 -15 8 -13 -4 -21 1 -27
17 -8 21 -9 21 -63 -21 -29 -23 -56 -44 -58 -46 -2 -1 -2 -5 0 -7 3 -3 24 10
48 29 41 33 44 34 67 18 18 -11 22 -19 14 -28 -8 -9 -5 -14 10 -18 35 -9 24
-43 -26 -82 -26 -19 -52 -35 -59 -35 -19 0 -38 27 -29 41 5 8 2 10 -8 6 -22
-8 -30 3 -15 21 10 13 9 14 -1 8 -13 -8 -41 18 -42 39 0 15 108 97 119 91 7
-5 23 28 18 38 -5 8 26 35 34 30 5 -3 12 1 15 10 3 8 12 12 20 9 8 -3 12 -9 9
-13 -3 -5 4 -11 15 -15 25 -8 26 -32 3 -59 -13 -15 -10 -14 10 3 15 14 27 29
27 35 0 6 -16 24 -35 39 -42 33 -39 45 11 44 29 -1 34 -4 31 -19z m-1434 -72
c1 -5 -24 -31 -56 -59 -45 -40 -60 -48 -70 -38 -9 9 0 22 43 61 51 46 78 58
83 36z m51 -42 l28 -25 -23 -27 -24 -27 28 24 c41 36 56 14 21 -30 l-26 -34
32 34 c22 23 35 30 42 23 13 -13 -1 -36 -53 -94 l-34 -38 -28 23 -28 23 20 26
c24 30 18 40 -16 27 -35 -13 -63 -11 -63 5 0 8 15 17 34 20 18 4 41 15 51 26
17 19 17 21 2 38 -10 10 -14 22 -10 25 10 11 16 8 47 -19z m157 -113 c20 -16
22 -23 14 -47 -6 -17 -20 -30 -34 -34 -22 -5 -21 -6 14 -23 20 -9 34 -13 30
-7 -6 10 19 65 35 75 5 3 14 3 20 0 11 -7 -56 -145 -71 -145 -9 0 -128 57
-138 66 -2 2 1 16 8 30 8 19 17 25 31 21 16 -4 17 -2 7 13 -8 14 -8 25 1 44
14 32 49 34 83 7z m938 0 c15 -27 18 -83 5 -88 -6 -2 -16 15 -23 37 l-12 40
-49 -25 c-53 -27 -70 -31 -70 -15 0 10 107 69 127 70 7 0 17 -9 22 -19z m-767
-70 l27 -10 -15 -52 c-32 -105 -26 -100 -84 -81 -28 9 -49 21 -46 27 2 6 12
39 22 74 19 68 23 70 96 42z m621 -50 c18 -61 17 -91 -2 -91 -5 0 -12 12 -15
26 -5 19 -11 24 -26 19 -14 -5 -20 -2 -20 9 0 9 7 16 15 16 18 0 19 9 5 45 -6
15 -7 31 -4 36 13 21 29 0 47 -60z m-73 39 c0 -12 -27 -24 -79 -35 -45 -10
-38 14 10 31 43 16 69 17 69 4z m188 -15 c13 -29 20 -30 46 -10 24 18 49 20
44 3 -5 -15 -140 -88 -150 -82 -14 9 -8 21 17 32 22 10 23 15 15 37 -13 35
-13 45 3 45 8 0 19 -11 25 -25z m-675 -23 c-2 -19 3 -32 12 -36 10 -3 15 1 15
12 0 42 56 56 99 26 20 -15 22 -22 16 -63 -10 -67 -20 -81 -60 -81 -41 0 -65
22 -65 59 0 39 -27 35 -41 -6 -11 -33 -23 -41 -34 -23 -10 16 35 152 48 147 7
-2 11 -18 10 -35z m319 -12 c9 -17 29 -35 43 -40 14 -6 23 -14 20 -20 -9 -15
-37 -12 -63 5 -20 15 -24 14 -44 -5 -20 -18 -58 -28 -58 -14 0 3 11 15 24 25
14 11 27 33 31 49 8 38 25 38 47 0z m-128 -52 c-7 -82 -9 -88 -30 -88 -12 0
-13 12 -8 67 7 85 10 93 29 93 14 0 15 -10 9 -72z m304 60 c-3 -7 -18 -16 -36
-20 -29 -8 -30 -10 -20 -38 11 -34 19 -36 52 -14 17 11 26 12 31 4 9 -14 8
-15 -45 -39 -25 -11 -48 -17 -52 -13 -4 4 -14 29 -22 55 -14 47 -14 48 7 56
12 5 29 11 37 14 27 10 52 7 48 -5z m-108 -123 c0 -11 -11 -15 -39 -15 -21 0
-59 -3 -85 -6 -38 -6 -46 -4 -46 9 0 12 12 17 48 20 109 8 122 7 122 -8z"/>
<path d="M1580 2011 c-8 -16 -6 -21 11 -26 28 -9 46 9 29 30 -17 20 -27 19
-40 -4z"/>
<path d="M514 1894 c3 -8 6 -18 6 -20 0 -3 5 -2 10 1 15 9 12 22 -6 29 -12 5
-15 2 -10 -10z"/>
<path d="M595 1488 c-52 -40 -55 -63 -55 -368 0 -312 4 -334 62 -370 55 -34
96 -26 231 41 67 34 124 63 126 65 2 2 -10 35 -28 73 -62 135 -62 261 1 389
17 34 29 64 27 66 -2 2 -59 31 -126 65 -139 69 -189 78 -238 39z"/>
<path d="M1007 1332 c-34 -38 -58 -124 -58 -206 0 -84 15 -142 52 -202 l20
-33 82 40 c186 91 197 100 217 160 12 35 11 44 -4 76 -21 44 -30 51 -144 110
-140 72 -148 74 -165 55z m24 -43 c-5 -13 -10 -19 -10 -12 -1 15 10 45 15 40
3 -2 0 -15 -5 -28z m39 21 c0 -5 -2 -10 -4 -10 -3 0 -8 5 -11 10 -3 6 -1 10 4
10 6 0 11 -4 11 -10z m75 -38 c-3 -3 -11 0 -18 7 -9 10 -8 11 6 5 10 -3 15 -9
12 -12z m-111 -61 c-5 -5 -33 30 -34 43 0 4 9 -2 19 -15 11 -13 17 -26 15 -28z
m101 39 c3 -5 1 -10 -4 -10 -6 0 -11 5 -11 10 0 6 2 10 4 10 3 0 8 -4 11 -10z
m96 -20 l24 -20 -28 14 c-28 14 -71 11 -62 -4 3 -4 -4 -10 -15 -13 -27 -7 -25
8 2 27 30 21 51 20 79 -4z m-260 -13 c-10 -9 -11 -8 -5 6 3 10 9 15 12 12 3
-3 0 -11 -7 -18z m37 -28 c-3 -8 -7 -3 -11 10 -4 17 -3 21 5 13 5 -5 8 -16 6
-23z m279 -43 c-3 -8 -1 -16 4 -18 6 -2 7 -12 3 -22 -7 -17 -8 -17 -19 5 -9
17 -10 26 -1 35 15 17 19 17 13 0z m4 -89 c-10 -9 -11 -8 -5 6 3 10 9 15 12
12 3 -3 0 -11 -7 -18z m-56 -6 c-3 -2 3 -10 13 -18 16 -12 16 -13 -2 -6 -14 5
-17 3 -11 -7 6 -9 4 -11 -6 -5 -42 24 -47 45 -9 42 10 -1 17 -3 15 -6z m-242
-21 c-3 -11 -9 -17 -14 -15 -10 7 -1 35 11 35 5 0 6 -9 3 -20z m28 -11 c-5
-13 -10 -19 -10 -12 -1 15 10 45 15 40 3 -2 0 -15 -5 -28z m16 -31 c-3 -7 -5
-2 -5 12 0 14 2 19 5 13 2 -7 2 -19 0 -25z m-22 -28 c-7 -22 -17 -20 -21 5 -1
8 2 13 7 9 5 -3 9 0 9 7 0 7 3 10 6 6 3 -3 3 -15 -1 -27z m115 0 c-18 -12 -30
-13 -30 -2 0 4 10 9 22 9 18 2 20 0 8 -7z m-87 -40 c-11 -10 -21 -13 -25 -7
-11 18 2 35 23 30 19 -5 19 -6 2 -23z"/>
<path d="M1205 1040 c3 -5 11 -10 16 -10 6 0 7 5 4 10 -3 6 -11 10 -16 10 -6
0 -7 -4 -4 -10z"/>
<path d="M122 1267 c-18 -22 10 -47 53 -47 59 0 54 47 -6 56 -24 4 -39 1 -47
-9z"/>
<path d="M2083 1153 c-16 -3 -23 -11 -23 -29 0 -22 4 -24 45 -24 41 0 45 2 45
25 0 14 -4 25 -9 25 -5 0 -15 2 -23 4 -7 2 -23 1 -35 -1z"/>
<path d="M2061 1020 c-39 -23 30 -71 71 -49 27 14 22 38 -9 45 -16 3 -33 7
-39 9 -6 2 -16 0 -23 -5z"/>
<path d="M200 643 c0 -11 39 -73 45 -73 3 0 -4 18 -15 40 -19 38 -30 49 -30
33z"/>
<path d="M1840 465 c-7 -9 -11 -18 -8 -20 3 -3 11 1 18 10 7 9 11 18 8 20 -3
3 -11 -1 -18 -10z"/>
<path d="M1765 305 c-16 -13 -27 -26 -24 -29 3 -3 21 8 40 24 41 35 27 40 -16
5z"/>
<path d="M519 293 c-13 -16 -12 -17 4 -4 16 13 21 21 13 21 -2 0 -10 -8 -17
-17z"/>
<path d="M636 295 c-7 -20 23 -33 34 -14 5 7 6 17 4 21 -9 13 -32 9 -38 -7z"/>
<path d="M600 222 c0 -4 20 -18 45 -30 25 -12 45 -18 45 -14 0 4 -20 18 -45
30 -25 12 -45 18 -45 14z"/>
<path d="M797 193 c-16 -51 -14 -63 8 -63 19 0 47 92 31 102 -20 14 -25 8 -39
-39z"/>
<path d="M979 155 c-1 -19 -2 -41 -3 -47 -1 -7 10 -13 24 -13 23 0 25 4 28 48
3 45 2 47 -22 47 -23 0 -26 -5 -27 -35z"/>
</g>
</svg>
